<svg id="Capa_1" enable-background="new 0 0 512 512" height="512" viewBox="0 0 512 512" width="512" xmlns="http://www.w3.org/2000/svg"><g><g><path clip-rule="evenodd" d="m316.779 154.673h-233.137c-47.163 34.998-77.663 90.676-77.663 153.395 0 105.918 86.966 191.751 194.217 191.751 107.28 0 194.246-85.833 194.246-191.751.001-62.719-30.5-118.397-77.663-153.395z" fill="#22a6fe" fill-rule="evenodd"/></g><g><path clip-rule="evenodd" d="m132.042 298.025c-6.595 1.783-13.336 3.506-20.049 5.348l72.393 70.859c12.306 7.844 19.342 7.844 31.619 0l72.423-70.859c-6.742-1.842-13.484-3.565-20.049-5.348-15.309-4.13-19.372-23.62-22.492-29.918-32.09-24.303-59.204-24.363-91.353 0-3.15 6.299-7.183 25.789-22.492 29.918z" fill="#fed1a3" fill-rule="evenodd"/></g><g><path clip-rule="evenodd" d="m83.642 164.923c0 36.455 30.647 81.109 70.892 103.184 5.329 2.912 10.834 5.467 16.487 7.517 21.109 7.725 37.271 7.725 58.38 0 5.623-2.05 11.128-4.605 16.487-7.517 40.245-22.075 70.892-66.73 70.892-103.184v-10.25-24.957c-174.168-92.043-48.635-108.503-233.137 0v24.957 10.25z" fill="#ffe5c1" fill-rule="evenodd"/></g><g><path clip-rule="evenodd" d="m180.088 2.02c-41.599 7.754-79.695 37.703-92.177 89.755-2.767 11.557-4.269 24.214-4.269 37.94 47.163-3.238 40.156-38.802 72.717-30.542 25.171 6.417 34.474 9.626 43.836 9.626s18.665-3.209 43.866-9.626c32.561-8.26 25.525 27.304 72.717 30.542 0-13.726-1.501-26.383-4.298-37.94-12.452-52.052-50.548-82-92.176-89.755-6.624-1.248-13.366-1.931-20.108-2.02-6.712.089-13.454.772-20.108 2.02z" fill="#6d80aa" fill-rule="evenodd"/></g><g><path clip-rule="evenodd" d="m111.993 303.373c-37.713 10.488-74.572 25.462-74.572 78.97v30.394c34.651 52.439 94.621 87.081 162.775 87.081s128.124-34.642 162.804-87.081v-30.394c0-53.509-36.859-68.483-74.572-78.97l-72.423 41.951c-12.277 7.844-19.313 7.844-31.619 0z" fill="#fd4755" fill-rule="evenodd"/></g><g><path clip-rule="evenodd" d="m284.366 154.673c-.442 34.375-27.792 75.791-64.621 98.698-2.061 1.278-4.151 2.496-6.271 3.654-5.358 2.941-10.863 5.467-16.486 7.517-14.543 5.318-26.702 6.982-39.774 4.991 4.504 2.317 9.097 4.367 13.807 6.091 21.109 7.725 37.271 7.725 58.38 0 5.623-2.05 11.128-4.605 16.487-7.517 40.245-22.075 70.892-66.73 70.892-103.184v-10.25-24.957c-15.603-1.07-25.289-5.675-32.414-11.052v24.957 10.25z" fill="#fed1a3" fill-rule="evenodd"/></g><g><path clip-rule="evenodd" d="m282.334 92.132c.972 6.15 1.619 12.568 1.884 19.282.088 2.377.147 4.783.147 7.249 7.125 5.378 16.81 9.983 32.414 11.052 0-13.726-1.501-26.383-4.298-37.94-12.453-52.052-50.549-82-92.177-89.755h-.029c27.88 14.38 50.696 40.644 59.793 78.673.883 3.595 1.619 7.279 2.208 11.082.029.119.058.238.058.357z" fill="#49679b" fill-rule="evenodd"/></g><g><path clip-rule="evenodd" d="m268.615 322.774c34.327 10.488 65.446 27.126 65.446 76.326v47.923c10.922-10.28 20.638-21.778 28.94-34.286v-30.394c0-53.509-36.859-68.483-74.572-78.97l-28.94 16.757c3.061.862 6.094 1.723 9.126 2.644z" fill="#e41e2b" fill-rule="evenodd"/></g><g><path clip-rule="evenodd" d="m314.895 181.263c14.897 38.534 23.228 81.793 23.228 127.517 0 5.467-.118 10.874-.353 16.252 15.073 11.795 25.23 29.265 25.23 57.311v30.394c19.872-30.097 31.442-66.046 31.442-104.67 0-62.719-30.5-118.396-77.663-153.395v10.25c0 5.319-.647 10.786-1.884 16.341z" fill="#0182fc" fill-rule="evenodd"/></g><g><path clip-rule="evenodd" d="m154.534 268.107c-2.031 4.07-4.445 13.667-10.039 21.035-.265.386 44.366 23.204 78.959 10.547 5.535-1.723 6.006-2.822 8.096 2.08 4.239 9.953 16.457 14.023 27.939 18.361l28.94-16.757c-6.742-1.842-13.484-3.565-20.049-5.348-15.309-4.13-19.372-23.62-22.492-29.918-5.358 2.912-10.863 5.467-16.487 7.517-21.109 7.725-37.271 7.725-58.38 0-4.71-1.723-9.303-3.773-13.807-6.091-.913-.475-1.796-.951-2.68-1.426z" fill="#ffbc85" fill-rule="evenodd"/></g><g><path clip-rule="evenodd" d="m302.059 324.2c-3.503 3.536-3.503 9.329 0 12.865l6.683 6.715c-5.917 9.418-10.304 19.906-12.807 31.107h-9.391c-4.975 0-9.038 4.1-9.038 9.091v25.462c0 5.021 4.063 9.091 9.038 9.091h9.391c2.502 11.231 6.889 21.718 12.807 31.107l-6.683 6.744c-3.503 3.536-3.503 9.329 0 12.865l17.841 18.005c3.503 3.536 9.244 3.536 12.748 0l6.653-6.744c9.333 5.972 19.725 10.399 30.853 12.924v9.478c0 5.021 4.033 9.091 9.009 9.091h25.23c4.946 0 9.009-4.07 9.009-9.091v-9.478c11.099-2.525 21.491-6.952 30.824-12.924l6.654 6.744c3.503 3.536 9.244 3.536 12.748 0l17.841-18.005c3.503-3.536 3.503-9.329 0-12.865l-6.653-6.744c5.888-9.389 10.275-19.876 12.777-31.107h9.421c4.946 0 9.009-4.07 9.009-9.091v-25.462c0-4.991-4.063-9.091-9.009-9.091h-9.421c-2.502-11.201-6.889-21.689-12.777-31.107l6.653-6.715c3.503-3.536 3.503-9.329 0-12.865l-17.841-18.005c-3.503-3.536-9.244-3.536-12.748 0l-6.654 6.715c-9.333-5.942-19.725-10.369-30.824-12.894v-9.507c0-4.991-4.063-9.091-9.009-9.091h-25.23c-4.975 0-9.009 4.1-9.009 9.091v9.507c-11.128 2.525-21.521 6.952-30.853 12.894l-6.653-6.715c-3.503-3.536-9.244-3.536-12.748 0z" fill="#6d80aa" fill-rule="evenodd"/></g><g><path clip-rule="evenodd" d="m432.833 355.277c-8.538-8.616-19.107-13.994-30.147-16.133-3.592-.683-7.272-1.04-10.922-1.04-14.867 0-29.735 5.734-41.069 17.173-22.669 22.877-22.669 59.985 0 82.892 11.334 11.439 26.202 17.143 41.069 17.143 1.708 0 3.415-.059 5.123-.208 13.13-1.188 25.907-6.833 35.947-16.935 22.667-22.906 22.667-60.015-.001-82.892z" fill="#f8f2f0" fill-rule="evenodd"/></g><g><path clip-rule="evenodd" d="m481.468 337.065c3.503-3.536 3.503-9.329 0-12.865l-17.841-18.005c-3.503-3.536-9.244-3.536-12.748 0l-6.654 6.715c-9.333-5.942-19.725-10.369-30.824-12.894v-9.507c0-4.991-4.063-9.091-9.009-9.091h-18.871c14.455 18.718 25.495 39.961 32.266 62.897 5.417 2.733 10.51 6.388 15.044 10.963 22.669 22.877 22.669 59.985 0 82.892-4.357 4.397-9.244 7.933-14.426 10.636-6.536 23.026-17.311 44.358-31.53 63.194h17.517c4.946 0 9.009-4.07 9.009-9.091v-9.478c11.099-2.525 21.491-6.952 30.824-12.924l6.654 6.744c3.503 3.536 9.244 3.536 12.748 0l17.841-18.005c3.503-3.536 3.503-9.329 0-12.865l-6.653-6.744c5.888-9.389 10.275-19.876 12.777-31.107h9.421c4.946 0 9.009-4.07 9.009-9.091v-25.462c0-4.991-4.063-9.091-9.009-9.091h-9.421c-2.502-11.201-6.889-21.689-12.777-31.107z" fill="#49679b" fill-rule="evenodd"/></g><g><path clip-rule="evenodd" d="m432.833 438.17c22.669-22.907 22.669-60.015 0-82.892-4.534-4.575-9.627-8.23-15.044-10.963 5.005 16.935 7.684 34.821 7.684 53.301 0 17.707-2.444 34.88-7.066 51.191 5.181-2.705 10.068-6.24 14.426-10.637z" fill="#eee1dc" fill-rule="evenodd"/></g><g><path d="m202.11 239.156c-10.326 0-20.033-4.057-27.333-11.424-3.004-3.031-2.981-7.924.05-10.927s7.923-2.981 10.927.049c4.376 4.417 10.185 6.848 16.356 6.848 6.172 0 11.98-2.432 16.356-6.848 3.004-3.03 7.895-3.052 10.927-.049 3.031 3.003 3.053 7.895.05 10.927-7.3 7.367-17.007 11.424-27.333 11.424z" fill="#6d80aa"/></g><g><path d="m148.146 167.182c-2.013 0-4.024-.782-5.539-2.339-2.975-3.058-2.908-7.951.151-10.926 10.288-10.008 26.999-10.004 37.253.011 3.053 2.981 3.111 7.873.129 10.926-2.982 3.054-7.873 3.11-10.926.129-4.312-4.209-11.347-4.206-15.681.011-1.501 1.461-3.445 2.188-5.387 2.188z" fill="#6d80aa"/></g><g><path d="m256.073 167.182c-1.942 0-3.885-.727-5.387-2.188-4.335-4.218-11.369-4.221-15.681-.011-3.053 2.982-7.945 2.925-10.926-.129-2.981-3.052-2.924-7.945.129-10.926 10.253-10.014 26.965-10.019 37.253-.011 3.059 2.975 3.126 7.867.151 10.926-1.515 1.557-3.526 2.339-5.539 2.339z" fill="#6d80aa"/></g></g></svg>