<svg height="512" viewBox="0 0 64 64" width="512" xmlns="http://www.w3.org/2000/svg"><g id="Admin-Computer-Configuration-Setting-Management"><path d="m54 9v22h-44v-22a2.006 2.006 0 0 1 2-2h40a2.006 2.006 0 0 1 2 2z" fill="#5aaae7"/><path d="m55 57v3a1 1 0 0 1 -1 1h-44a1 1 0 0 1 -1-1v-3z" fill="#acabb1"/><path d="m55 57h-46l6-6h34z" fill="#c6c5ca"/><path d="m54 31v4a2.006 2.006 0 0 1 -2 2h-40a2.006 2.006 0 0 1 -2-2v-4z" fill="#c6c5ca"/><path d="m42 43v4h-20v-4h5 10z" fill="#acabb1"/><path d="m27 37h10v6h-10z" fill="#c6c5ca"/><path d="m27 37h10v2h-10z" fill="#acabb1"/><path d="m46 17a11.984 11.984 0 0 1 -4.01 8.95 11.281 11.281 0 0 1 -1.28 1 11.138 11.138 0 0 1 -1.92 1.05 11.737 11.737 0 0 1 -4.79 1 12 12 0 0 1 -6.64-22h13.28a11.988 11.988 0 0 1 5.36 10z" fill="#3d9ae2"/><path d="m44 15a11.984 11.984 0 0 1 -4.01 8.95 11.281 11.281 0 0 1 -1.28 1 11.138 11.138 0 0 1 -1.92 1.05 11.737 11.737 0 0 1 -4.79 1 12 12 0 1 1 12-12z" fill="#ffd422"/><path d="m38 22.14v1.86h-6v-3l2.82-3.12 1.4.93a4 4 0 0 1 1.78 3.33z" fill="#3d9ae2"/><path d="m35 12v2a2.991 2.991 0 0 1 -1.85 2.77 2.99 2.99 0 0 1 -2.3 0 2.991 2.991 0 0 1 -1.85-2.77v-2z" fill="#ffc477"/><path d="m35 11v1h-3v-4a3 3 0 0 1 3 3z" fill="#ff9811"/><path d="m34.82 17.88-2.82 3.12-2.82-3.12 1.67-1.11a2.99 2.99 0 0 0 2.3 0z" fill="#ffc477"/><path d="m32 21v3h-6v-1.86a4 4 0 0 1 1.78-3.33l1.4-.93z" fill="#3d9ae2"/><path d="m32 8v4h-3v-1a3 3 0 0 1 3-3z" fill="#ff9811"/><path d="m55.707 56.293-6-6a1 1 0 0 0 -.707-.293h-30v-2a3 3 0 0 0 -3-3h-6a1 1 0 0 1 0-2h6a3 3 0 0 0 3-3v-2h7v4h-4a1 1 0 0 0 -1 1v4a1 1 0 0 0 1 1h20a1 1 0 0 0 1-1v-4a1 1 0 0 0 -1-1h-4v-4h14a3 3 0 0 0 3-3v-26a3 3 0 0 0 -3-3h-7v2h7a1 1 0 0 1 1 1v21h-42v-21a1 1 0 0 1 1-1h7v-2h-7a3 3 0 0 0 -3 3v26a3 3 0 0 0 3 3h5v2a1 1 0 0 1 -1 1h-6a3 3 0 0 0 0 6h6a1 1 0 0 1 1 1v2h-2a1 1 0 0 0 -.707.293l-6 6a1 1 0 0 0 -.293.707v3a2 2 0 0 0 2 2h44a2 2 0 0 0 2-2v-3a1 1 0 0 0 -.293-.707zm-14.707-10.293h-18v-2h18zm-5-4h-8v-4h8zm-25-7v-3h42v3a1 1 0 0 1 -1 1h-40a1 1 0 0 1 -1-1zm4.414 17h33.172l4 4h-41.172zm-5.414 8v-2h44v2z"/><path d="m16 53h2v2h-2z"/><path d="m20 53h2v2h-2z"/><path d="m42 53h2v2h-2z"/><path d="m24 53h16v2h-16z"/><path d="m46 53h2v2h-2z"/><path d="m47 33h2v2h-2z"/><path d="m32 28a13 13 0 1 0 -13-13 13.015 13.015 0 0 0 13 13zm-2-15h4v1a2 2 0 0 1 -4 0zm3-3.722a1.993 1.993 0 0 1 1 1.722h-1zm-2 1.722h-1a1.993 1.993 0 0 1 1-1.722zm6 12h-4v-1.615l1.983-2.193.68.453a2.994 2.994 0 0 1 1.337 2.497zm-5.986-5.138a3.591 3.591 0 0 0 1.972 0l.313.209-1.299 1.438-1.3-1.438zm-2 1.33 1.986 2.193v1.615h-4v-.858a2.992 2.992 0 0 1 1.338-2.5zm-1.57 5.808h9.112a10.879 10.879 0 0 1 -9.112 0zm4.556-21a11 11 0 0 1 7 19.479v-1.337a4.988 4.988 0 0 0 -2.229-4.162l-1.871-1.244a3.981 3.981 0 0 0 1.1-2.736v-1h1v-2h-1a4 4 0 0 0 -3-3.858v-1.142h-2v1.142a4 4 0 0 0 -3 3.858h-1v2h1v1a3.981 3.981 0 0 0 1.1 2.736l-1.871 1.244a4.988 4.988 0 0 0 -2.229 4.162v1.337a11 11 0 0 1 7-19.479z"/></g></svg>